# xmcd CD database file
#
# Track frame offsets:
#	180
#	15470
#	31467
#	48859
#	74279
#	82401
#	100883
#	134480
#	175963
#	194784
#	227021
#	266625
#	291876
#	304975
#
# Disc length: 4421 seconds
#
# Revision: 1
# Processed by: cddbd v1.5.2PL0 Copyright (c) Steve Scherf et al.
# Submitted via: CDex 1.70beta2
#
DISCID=d111430e
DTITLE=Bodo Kolbe - Mer speele de Bluus CD2
DYEAR=1979
DGENRE=Blues
TTITLE0=Mer speele de Bluus
TTITLE1=Vorm-Door-Steher-R‰g
TTITLE2=Isch muﬂ emol unner doi Haub gucke
TTITLE3=Isch muﬂ emol unner doi Haub gucke (2)
TTITLE4=Haam zu dir (Home to you)
TTITLE5=Haam zu dir
TTITLE6=Biibaa Bluus
TTITLE7=Biibaa Blues
TTITLE8=Nordweststadt Bluus
TTITLE9=Nordweststadt Bluus (2)
TTITLE10=Es kimmt net uff die Greeﬂ oo
TTITLE11=B 44
TTITLE12=B 44 (Fragment)
TTITLE13=Mer speele de Bluus (2)
EXTD=YEAR: 1979
EXTT0=
EXTT1=
EXTT2=
EXTT3=
EXTT4=
EXTT5=
EXTT6=
EXTT7=
EXTT8=
EXTT9=
EXTT10=
EXTT11=
EXTT12=
EXTT13=
PLAYORDER=
